<svg width="25" height="25" viewBox="0 0 25 25" fill="none" xmlns="http://www.w3.org/2000/svg">
<path d="M5.72314 14.7334L6.26091 14.4838L12.8853 11.3837L20.0474 14.7334L17.3585 20.7105L10.7831 21.7088L5.83314 15.9683L5.72314 14.7334Z" fill="#133444"/>
<path d="M18.5677 11.055C17.3821 9.51808 15.7077 8.53285 13.8744 8.27013L13.7522 8.25699C13.1777 8.17817 12.6033 8.17817 12.0289 8.25699L11.9066 8.27013C10.0733 8.53285 8.39891 9.53122 7.21337 11.055L6.92004 11.5805L6.41894 12.4606L6.05228 13.1043C6.05228 13.1174 6.04005 13.1437 6.02783 13.1569V13.17L6.82227 13.6823L11.8944 16.9139L12.8722 17.5313V9.82022L11.8944 10.2931V9.13713L12.8722 8.66422L13.8499 9.13713L18.8365 11.5805L18.5677 11.055Z" fill="#C42370"/>
<path d="M20.2667 16.6513C20.2545 19.1866 19.1912 21.5775 17.3701 23.1801C16.6734 23.7975 15.8912 24.2573 15.0357 24.5725C14.339 24.8221 13.6179 24.9404 12.8846 24.9404C8.80241 24.9404 5.49023 21.0389 5.49023 16.6513C5.49023 16.0076 5.56357 15.3639 5.71023 14.7334L12.8724 19.2917L20.0345 14.7334C20.1934 15.3639 20.2789 16.0076 20.2667 16.6513Z" fill="#1C4D6B"/>
<path d="M12.0297 8.2577L12.8852 8.66493L11.9075 9.15098V8.19202L12.0297 8.2577Z" fill="black"/>
<path d="M11.9075 10.307L12.8852 9.82092V17.5451L11.9075 16.9146V10.307Z" fill="black"/>
<path d="M12.884 9.82092V17.5451L19.7528 13.1838L12.884 9.82092Z" fill="#1D4259"/>
<path d="M12.884 0.94043V9.82061L19.7528 13.1835L12.884 0.94043Z" fill="#4B6B9A"/>
<path d="M12.8839 9.82027V17.5313L11.9062 16.9139L6.02736 13.1832H6.01514H6.02736C6.02736 13.17 6.03958 13.1438 6.0518 13.1306L6.90735 11.5937L11.8939 9.16345V10.3063L12.8839 9.82027Z" fill="#343535"/>
<path d="M12.8844 9.82092V17.5451L11.9066 16.9146L6.02783 13.1838L6.04005 13.1707L11.9066 10.307L12.8844 9.82092Z" fill="#3E5578"/>
<path d="M12.8844 0.94043V9.82061L6.02783 13.1835L12.8844 0.94043Z" fill="#6DB2D8"/>
<path d="M10.1106 24.3101C10.2084 24.3626 10.3184 24.402 10.4161 24.4414C10.3184 24.402 10.2206 24.3495 10.1106 24.3101Z" fill="#335F8A"/>
<path d="M10.4153 24.4413C10.5131 24.4807 10.6231 24.5332 10.7331 24.5595C10.6353 24.5332 10.5253 24.4938 10.4153 24.4413Z" fill="#335F8A"/>
<path d="M11.0151 24.6516C11.1007 24.6779 11.174 24.7042 11.2596 24.7173C11.174 24.7042 11.0885 24.6779 11.0151 24.6516Z" fill="#335F8A"/>
<path d="M5.72268 14.7334L12.8848 19.2917C12.787 19.9879 12.6159 20.6579 12.3715 21.3147C11.797 22.8123 10.6482 24.3886 8.39931 23.1801C6.57823 21.5774 5.51491 19.1866 5.50269 16.6513C5.50269 16.0076 5.57602 15.3639 5.72268 14.7334Z" fill="#6DB2D8"/>
<path d="M17.3708 23.1802L17.3463 23.1933C17.3097 23.2196 17.273 23.259 17.2363 23.2852L17.2241 23.2984C17.1875 23.3378 17.1386 23.3641 17.1019 23.4035C17.053 23.4429 17.0163 23.4823 16.9675 23.5086C16.9186 23.5348 16.8697 23.5742 16.833 23.6137C16.7841 23.6531 16.7475 23.6662 16.7108 23.7056L16.6864 23.7188C16.6375 23.745 16.6008 23.7713 16.5641 23.8107C16.5641 23.8107 16.5519 23.8107 16.5519 23.8238C16.503 23.8501 16.4664 23.8764 16.4175 23.9158C16.3686 23.9421 16.3197 23.9683 16.2708 24.0077C16.2219 24.034 16.173 24.0603 16.1241 24.0866L15.9775 24.1654C15.9286 24.1917 15.8797 24.2179 15.8308 24.2442C15.7819 24.2705 15.733 24.2968 15.6841 24.323C15.5864 24.3756 15.4764 24.415 15.3786 24.4544C15.2808 24.4938 15.1708 24.5332 15.0608 24.5726C15.0242 24.5858 14.9753 24.5989 14.9386 24.612L14.7919 24.6646C14.7064 24.6908 14.6331 24.7171 14.5475 24.7302C14.5231 24.7434 14.4864 24.7434 14.4497 24.7565L14.4008 24.7697L14.2664 24.7959C14.2175 24.8091 14.1931 24.8091 14.1442 24.8222C14.1075 24.8353 14.0708 24.8353 14.0342 24.8485C13.9975 24.8485 13.9486 24.8616 13.912 24.8747C13.8875 24.8747 13.8753 24.8748 13.8508 24.8879L13.7531 24.901H13.7042C13.6675 24.901 13.6308 24.9142 13.6064 24.9142C13.5697 24.9142 13.5208 24.9273 13.4842 24.9273C13.4475 24.9273 13.4231 24.9273 13.3864 24.9273C13.3497 24.9273 13.3253 24.9273 13.3008 24.9273C13.2642 24.9273 13.2275 24.9273 13.2031 24.9273C13.1786 24.9273 13.1053 24.9273 13.0686 24.9273H12.7753C12.7264 24.9273 12.6775 24.9273 12.6409 24.9273C12.6042 24.9273 12.5675 24.9273 12.5431 24.9273C12.5186 24.9273 12.482 24.9273 12.4575 24.9273C12.4331 24.9273 12.3964 24.9273 12.3598 24.9273C12.3231 24.9273 12.2742 24.9142 12.2375 24.9142C12.2009 24.9142 12.1642 24.9142 12.1398 24.901H12.0909C12.0664 24.901 12.0298 24.8879 11.9931 24.8879C11.9686 24.8879 11.9564 24.8879 11.932 24.8747C11.8953 24.8747 11.8464 24.8616 11.8098 24.8485C11.7731 24.8485 11.7364 24.8353 11.6998 24.8222C11.6631 24.8222 11.6142 24.8091 11.5775 24.7959C11.5409 24.7828 11.492 24.7697 11.4431 24.7697L11.3942 24.7565C11.3575 24.7565 11.3209 24.7434 11.2964 24.7434C11.2109 24.7171 11.1253 24.6908 11.052 24.6777L10.9053 24.6252C10.8564 24.612 10.8198 24.5989 10.7831 24.5858C10.6731 24.5463 10.5753 24.5069 10.4653 24.4675C10.3553 24.4281 10.2576 24.3756 10.1598 24.3362C10.1109 24.3099 10.062 24.2836 10.0131 24.2573L9.86646 24.1785L9.71979 24.0997C9.6709 24.0734 9.62202 24.0472 9.57313 24.0209C9.52424 23.9946 9.47535 23.9683 9.42646 23.9289C9.37758 23.9027 9.34091 23.8764 9.29202 23.837L9.2798 23.8238C9.23091 23.7976 9.19424 23.7713 9.15758 23.7319L9.13313 23.7188C9.09647 23.6925 9.04758 23.6662 9.01091 23.6268C8.97425 23.6005 8.91314 23.5611 8.87647 23.5217C8.82758 23.4823 8.7787 23.456 8.74203 23.4166L8.61981 23.3115L8.60759 23.2984C8.57092 23.2721 8.53425 23.2327 8.49759 23.2064L8.47314 23.1933C10.7098 24.3887 11.8709 22.8123 12.4453 21.3279C12.6897 20.6842 12.8609 20.0012 12.9586 19.3049C13.0564 20.0012 13.2275 20.6711 13.472 21.3279C13.9731 22.7992 15.1342 24.3756 17.3708 23.1802Z" fill="#529BBA"/>
<path d="M14.5229 24.7302C14.6085 24.704 14.6941 24.6777 14.7674 24.6646C14.6941 24.6777 14.6085 24.704 14.5229 24.7302Z" fill="#335F8A"/>
<path d="M15.0356 24.5595C15.1456 24.5201 15.2434 24.4807 15.3534 24.4413C15.2556 24.4938 15.1456 24.5332 15.0356 24.5595Z" fill="#335F8A"/>
<path d="M15.3528 24.4414C15.4506 24.402 15.5606 24.3495 15.6583 24.3101C15.5606 24.3495 15.4628 24.402 15.3528 24.4414Z" fill="#335F8A"/>
<path d="M20.2661 16.6513C20.2539 19.1866 19.1906 21.5775 17.3695 23.1801C15.1329 24.3755 13.9718 22.7991 13.3974 21.3147C13.1529 20.671 12.9818 19.9879 12.884 19.2917L20.0462 14.7334C20.1928 15.3639 20.2661 16.0076 20.2661 16.6513Z" fill="#4B6B9A"/>
</svg>
