<svg width="24" height="22" viewBox="0 0 24 22" fill="none" xmlns="http://www.w3.org/2000/svg">
<path d="M21.3337 0.877075H3.83374C1.90407 0.877075 0.33374 2.44741 0.33374 4.37708V18.3771C0.33374 20.3067 1.90407 21.8771 3.83374 21.8771H21.3337C22.6206 21.8771 23.6671 20.8306 23.6671 19.5437V3.21041C23.6671 1.92358 22.6206 0.877075 21.3337 0.877075ZM3.83374 19.5437C3.18974 19.5437 2.66707 19.0199 2.66707 18.3771V4.37708C2.66707 3.73424 3.18974 3.21041 3.83374 3.21041H21.3337V6.71041H14.3337C13.0469 6.71041 12.0004 7.75691 12.0004 9.04374V13.7104C12.0004 14.9972 13.0469 16.0437 14.3337 16.0437H21.3349V19.5437H3.83374ZM21.3337 9.04374V13.7104H14.3337V9.04374H21.3337Z" fill="white"/>
</svg>
